<?xml version="1.0" encoding="utf-8"?>
<!-- Generator: Adobe Illustrator 25.2.1, SVG Export Plug-In . SVG Version: 6.00 Build 0)  -->
<svg version="1.1" id="Capa_1" xmlns="http://www.w3.org/2000/svg" xmlns:xlink="http://www.w3.org/1999/xlink" x="0px" y="0px"
	 viewBox="0 0 136.4 44.9" style="enable-background:new 0 0 136.4 44.9;" xml:space="preserve">
<style type="text/css">
	.st0{fill:#FFFFFF;}
</style>
<g>
	<path class="st0" d="M24.2,5c-2.3,0-4.6,0.5-6.7,1.3c-2.1,0.9-4.1,2.2-5.7,3.8c-1.6,1.6-2.9,3.6-3.8,5.7s-1.3,4.4-1.3,6.7
		c0,2.3,0.5,4.6,1.3,6.7c0.9,2.1,2.2,4.1,3.8,5.7s3.6,2.9,5.7,3.8c2.1,0.9,4.4,1.3,6.7,1.3v-8.8c-1.1,0-2.3-0.2-3.3-0.7
		c-1.1-0.4-2-1.1-2.8-1.9s-1.5-1.8-1.9-2.8c-0.4-1.1-0.7-2.2-0.7-3.3s0.2-2.3,0.7-3.3c0.4-1.1,1.1-2,1.9-2.8
		c0.8-0.8,1.8-1.5,2.8-1.9c1.1-0.4,2.2-0.7,3.3-0.7V5z"/>
	<circle class="st0" cx="24.2" cy="22.5" r="5.8"/>
	<path class="st0" d="M6.7,22.5c0,2.3,0.5,4.6,1.3,6.7c0.9,2.1,2.2,4.1,3.8,5.7s3.6,2.9,5.7,3.8c2.1,0.9,4.4,1.3,6.7,1.3
		s4.6-0.5,6.7-1.3c2.1-0.9,4.1-2.2,5.7-3.8c1.6-1.6,2.9-3.6,3.8-5.7c0.9-2.1,1.3-4.4,1.3-6.7h-8.8c0,1.1-0.2,2.3-0.7,3.3
		c-0.4,1.1-1.1,2-1.9,2.8s-1.8,1.5-2.8,1.9c-1.1,0.4-2.2,0.7-3.3,0.7s-2.3-0.2-3.3-0.7c-1.1-0.4-2-1.1-2.8-1.9s-1.5-1.8-1.9-2.8
		c-0.4-1.1-0.7-2.2-0.7-3.3H6.7z"/>
	<path class="st0" d="M30,22.5c0-1.5-0.6-3-1.7-4.1c-1.1-1.1-2.6-1.7-4.1-1.7s-3,0.6-4.1,1.7s-1.7,2.6-1.7,4.1h5.8H30z"/>
	<path class="st0" d="M50.8,15.9h-2.1V28h2.2L50.8,15.9L50.8,15.9z"/>
	<path class="st0" d="M52.3,23.7c0,2.8,1.9,4.5,4.5,4.5s4.5-1.7,4.5-4.5s-1.9-4.5-4.5-4.5S52.3,20.9,52.3,23.7z M54.4,23.7
		c0-1.7,1-2.6,2.3-2.6s2.3,1,2.3,2.6s-1,2.6-2.3,2.6S54.4,25.3,54.4,23.7z"/>
	<path class="st0" d="M69,19.4v1.2h-0.2c-0.5-0.7-1.3-1.4-2.8-1.4c-2,0-3.9,1.7-3.9,4.4S63.9,28,66,28c1.5,0,2.3-0.7,2.8-1.3H69v0.8
		c0,1.7-1,2.4-2.4,2.4s-2.1-0.8-2.4-1.7L62.3,29c0.4,1.3,1.8,2.7,4.4,2.7c2.7,0,4.5-1.4,4.5-4.2v-8.1C71.2,19.4,69,19.4,69,19.4z
		 M66.6,26.1c-1.3,0-2.3-1-2.3-2.5s1-2.5,2.3-2.5s2.3,1,2.3,2.5S68,26.1,66.6,26.1z"/>
	<path class="st0" d="M72.5,23.7c0,2.8,1.9,4.5,4.5,4.5s4.5-1.7,4.5-4.5s-1.9-4.5-4.5-4.5C74.5,19.2,72.5,20.9,72.5,23.7z
		 M74.7,23.7c0-1.7,1-2.6,2.3-2.6s2.3,1,2.3,2.6s-1,2.6-2.3,2.6C75.7,26.3,74.7,25.3,74.7,23.7z"/>
	<path class="st0" d="M83.2,16.9c0,0.9,0.7,1.5,1.5,1.5c0.9,0,1.5-0.6,1.5-1.5c0-0.9-0.7-1.5-1.5-1.5S83.2,16,83.2,16.9z M85.8,19.4
		h-2.1V28h2.2L85.8,19.4L85.8,19.4z"/>
	<path class="st0" d="M87.8,31.4H90v-4.6h0.2c0.5,0.7,1.3,1.3,2.8,1.3c2,0,3.9-1.7,3.9-4.5s-1.8-4.5-3.9-4.5c-1.5,0-2.3,0.7-2.8,1.4
		H90v-1.2h-2.1L87.8,31.4L87.8,31.4z M92.3,26.3c-1.3,0-2.3-1-2.3-2.7s1-2.7,2.3-2.7s2.3,1,2.3,2.7S93.6,26.3,92.3,26.3z"/>
	<path class="st0" d="M98,21.8c0,1.7,1.4,2.3,3.2,2.7l0.4,0.1c1.1,0.2,1.6,0.5,1.6,1c0,0.6-0.5,1-1.5,1s-1.8-0.4-2-1.7l-2,0.5
		c0.3,1.8,1.8,2.8,4,2.8s3.6-1,3.6-2.8s-1.4-2.3-3.4-2.7l-0.4-0.1c-0.9-0.2-1.4-0.4-1.4-1c0-0.5,0.4-0.8,1.3-0.8
		c0.8,0,1.4,0.3,1.6,1.3l2-0.6c-0.4-1.4-1.7-2.3-3.6-2.3C99.4,19.2,98,20.1,98,21.8z"/>
	<path class="st0" d="M115.1,28v-8.6h-2.2v4.4c0,1.6-0.8,2.5-2.1,2.5c-1.2,0-1.8-0.6-1.8-1.9v-5h-2.2v5.1c0,2.1,1.3,3.6,3.3,3.6
		c1.6,0,2.3-0.7,2.6-1.4h0.2V28H115.1z"/>
	<path class="st0" d="M117.1,19.4V28h2.2v-5.1c0-1.2,0.6-1.8,1.6-1.8c0.9,0,1.4,0.5,1.4,1.4V28h2.2v-5.1c0-1.2,0.6-1.8,1.6-1.8
		c0.9,0,1.4,0.5,1.4,1.4V28h2.2v-5.6c0-2.1-1.3-3.1-2.9-3.1c-1.4,0-2,0.6-2.4,1.3h-0.2c-0.4-0.8-1.1-1.3-2.3-1.3s-1.9,0.6-2.2,1.2
		h-0.2v-1.1H117.1z"/>
</g>
</svg>
